<svg xmlns="http://www.w3.org/2000/svg" height="24" viewBox="0 -960 960 960" width="24"><path d="M276.891-148v-378.457h67.348q7.957 0 15.913 1.62 7.957 1.619 15.913 4.098l268.391 99.652q19.022 6.913 31.109 23.38 12.087 16.468 12.087 35.729 0 19.087-13.065 31.011t-30.63 11.924H536.565q-8.347 0-14.674-1.098-6.326-1.098-13.435-4.055l-65.674-24.521-14.434 43.543 75.565 26.283q6.304 2.435 14.489 3.532 8.185 1.098 15.729 1.098h268.26q34.631 0 60.185 25.87 25.555 25.87 25.555 62.022L561.478-67.565 276.891-148ZM33.304-71.87v-454.587h163.587v454.588H33.304Zm493.261-454.978L348.913-704.74l64.652-63.891 113 113.239 227-226.239 63.892 63.891-290.892 290.892Z"/></svg>