<?xml version="1.0" encoding="UTF-8" standalone="no"?><!DOCTYPE svg PUBLIC "-//W3C//DTD SVG 1.1//EN" "http://www.w3.org/Graphics/SVG/1.1/DTD/svg11.dtd"><svg width="100%" height="100%" viewBox="0 0 217 31" version="1.1" xmlns="http://www.w3.org/2000/svg" xmlns:xlink="http://www.w3.org/1999/xlink" xml:space="preserve" xmlns:serif="http://www.serif.com/" style="fill-rule:evenodd;clip-rule:evenodd;stroke-linejoin:bevel;stroke-miterlimit:1.5;"><g><path d="M152.453,0.998c0,0 -4,10.5 -4,15c0,2.208 1.792,4 4,4c2.208,0 4,-1.792 4,-4c0,-4.5 -4,-15 -4,-15Z" style="fill:#ffbd17;stroke:#ffbd17;stroke-width:2px;"/><g><path d="M38.017,23.18c0,0.836 -0.172,1.587 -0.517,2.254c-0.345,0.668 -0.8,1.256 -1.366,1.766c-0.566,0.51 -1.229,0.944 -1.99,1.302c-0.76,0.358 -1.548,0.651 -2.361,0.879c-0.814,0.228 -1.641,0.396 -2.481,0.505c-0.84,0.108 -1.631,0.163 -2.374,0.163l-26.61,-0l0,-4.232l26.61,-0c1.326,-0 2.357,-0.239 3.091,-0.716c0.734,-0.478 1.101,-1.118 1.101,-1.921c-0,-0.39 -0.098,-0.749 -0.292,-1.074c-0.195,-0.326 -0.473,-0.608 -0.836,-0.846c-0.362,-0.239 -0.805,-0.424 -1.326,-0.554c-0.522,-0.13 -1.101,-0.195 -1.738,-0.195l-15.865,-0c-1.114,-0 -2.317,-0.122 -3.608,-0.366c-1.291,-0.244 -2.489,-0.638 -3.595,-1.18c-1.105,-0.543 -2.025,-1.254 -2.759,-2.133c-0.734,-0.878 -1.101,-1.953 -1.101,-3.222c0,-1.27 0.367,-2.341 1.101,-3.215c0.734,-0.873 1.654,-1.584 2.759,-2.132c1.106,-0.548 2.304,-0.944 3.595,-1.188c1.291,-0.244 2.494,-0.366 3.608,-0.366l23.479,-0l-0,4.232l-23.479,-0c-1.309,-0 -2.33,0.244 -3.064,0.732c-0.734,0.488 -1.101,1.134 -1.101,1.937c-0,0.814 0.367,1.457 1.101,1.929c0.734,0.472 1.755,0.708 3.064,0.708l15.918,-0c0.743,0.01 1.53,0.073 2.361,0.187c0.831,0.114 1.658,0.29 2.481,0.529c0.822,0.238 1.605,0.54 2.348,0.903c0.742,0.364 1.401,0.8 1.976,1.31c0.575,0.51 1.03,1.096 1.366,1.758c0.336,0.662 0.504,1.411 0.504,2.246Z" style="fill:#000;fill-rule:nonzero;"/><path d="M76.385,20.511l-21.781,-0l-0,-4.264l21.781,-0l0,4.264Zm3.104,9.538l-24.885,-0c-0.955,-0 -1.999,-0.103 -3.131,-0.31c-1.132,-0.206 -2.179,-0.545 -3.143,-1.017c-0.964,-0.472 -1.769,-1.085 -2.415,-1.839c-0.645,-0.754 -0.968,-1.679 -0.968,-2.775l0,-15.267c0,-0.293 0.088,-0.57 0.265,-0.83c0.177,-0.261 0.42,-0.488 0.73,-0.684c0.309,-0.195 0.676,-0.347 1.101,-0.455c0.424,-0.109 0.884,-0.163 1.379,-0.163l31.067,-0l0,4.232l-27.644,-0l-0,13.167c-0,0.553 0.239,0.976 0.716,1.269c0.478,0.293 1.176,0.44 2.096,0.44l24.832,-0l0,4.232Z" style="fill:#000;fill-rule:nonzero;"/><path d="M124.9,27.916c-0,0.304 -0.089,0.586 -0.266,0.847c-0.176,0.26 -0.42,0.485 -0.729,0.675c-0.31,0.19 -0.677,0.339 -1.101,0.448c-0.425,0.108 -0.884,0.163 -1.38,0.163l-24.885,-0c-0.636,-0 -1.322,-0.046 -2.056,-0.139c-0.734,-0.092 -1.459,-0.236 -2.175,-0.431c-0.717,-0.195 -1.402,-0.448 -2.056,-0.757c-0.655,-0.309 -1.234,-0.683 -1.738,-1.123c-0.504,-0.439 -0.906,-0.949 -1.207,-1.53c-0.301,-0.58 -0.451,-1.234 -0.451,-1.961l-0,-11.458c-0,-0.391 0.075,-0.812 0.225,-1.262c0.151,-0.45 0.385,-0.895 0.703,-1.334c0.319,-0.44 0.734,-0.86 1.247,-1.262c0.513,-0.401 1.128,-0.757 1.844,-1.066c0.716,-0.309 1.543,-0.556 2.481,-0.741c0.937,-0.184 1.998,-0.276 3.183,-0.276l28.042,-0l0,4.232l-28.042,-0c-0.902,-0 -1.592,0.146 -2.069,0.439c-0.478,0.293 -0.716,0.727 -0.716,1.302l-0,11.426c-0,0.542 0.243,0.963 0.729,1.261c0.487,0.299 1.172,0.448 2.056,0.448l21.463,-0l-0,-5.306l-18.359,-0l0,-4.264l21.781,-0c0.496,-0 0.955,0.057 1.38,0.17c0.424,0.114 0.791,0.269 1.101,0.464c0.309,0.196 0.553,0.421 0.729,0.676c0.177,0.255 0.266,0.529 0.266,0.822l-0,9.537Z" style="fill:#000;fill-rule:nonzero;"/><path d="M170.722,27.916c0,0.304 -0.088,0.586 -0.265,0.847c-0.177,0.26 -0.424,0.485 -0.743,0.675c-0.318,0.19 -0.69,0.339 -1.114,0.448c-0.425,0.108 -0.876,0.163 -1.353,0.163l-15.547,-0c-1.468,-0 -2.953,-0.098 -4.457,-0.293c-1.503,-0.196 -2.958,-0.497 -4.364,-0.904c-1.406,-0.407 -2.728,-0.925 -3.966,-1.554c-1.238,-0.629 -2.321,-1.375 -3.25,-2.238c-0.929,-0.863 -1.658,-1.85 -2.189,-2.962c-0.53,-1.112 -0.796,-2.352 -0.796,-3.719l0,-11.67l6.898,-0l0,11.67c0,1.193 0.27,2.202 0.809,3.027c0.54,0.825 1.225,1.514 2.056,2.067c0.832,0.553 1.743,0.988 2.733,1.302c0.99,0.315 1.932,0.548 2.825,0.7c0.894,0.152 1.681,0.247 2.362,0.285c0.68,0.038 1.127,0.057 1.339,0.057l12.125,-0l-0,-19.108l6.897,-0l0,21.207Z" style="fill:#000;fill-rule:nonzero;"/><path d="M216.651,23.18c-0,0.836 -0.173,1.587 -0.517,2.254c-0.345,0.668 -0.801,1.256 -1.367,1.766c-0.566,0.51 -1.229,0.944 -1.989,1.302c-0.761,0.358 -1.548,0.651 -2.362,0.879c-0.813,0.228 -1.64,0.396 -2.48,0.505c-0.84,0.108 -1.632,0.163 -2.375,0.163l-26.609,-0l-0,-4.232l26.609,-0c1.327,-0 2.357,-0.239 3.091,-0.716c0.734,-0.478 1.101,-1.118 1.101,-1.921c0,-0.39 -0.097,-0.749 -0.292,-1.074c-0.194,-0.326 -0.473,-0.608 -0.835,-0.846c-0.363,-0.239 -0.805,-0.424 -1.327,-0.554c-0.522,-0.13 -1.101,-0.195 -1.738,-0.195l-15.864,-0c-1.115,-0 -2.317,-0.122 -3.609,-0.366c-1.291,-0.244 -2.489,-0.638 -3.594,-1.18c-1.106,-0.543 -2.025,-1.254 -2.759,-2.133c-0.734,-0.878 -1.101,-1.953 -1.101,-3.222c-0,-1.27 0.367,-2.341 1.101,-3.215c0.734,-0.873 1.653,-1.584 2.759,-2.132c1.105,-0.548 2.303,-0.944 3.594,-1.188c1.292,-0.244 2.494,-0.366 3.609,-0.366l23.479,-0l-0,4.232l-23.479,-0c-1.309,-0 -2.331,0.244 -3.065,0.732c-0.734,0.488 -1.101,1.134 -1.101,1.937c0,0.814 0.367,1.457 1.101,1.929c0.734,0.472 1.756,0.708 3.065,0.708l15.917,-0c0.743,0.01 1.53,0.073 2.362,0.187c0.831,0.114 1.658,0.29 2.48,0.529c0.823,0.238 1.605,0.54 2.348,0.903c0.743,0.364 1.402,0.8 1.977,1.31c0.574,0.51 1.03,1.096 1.366,1.758c0.336,0.662 0.504,1.411 0.504,2.246Z" style="fill:#000;fill-rule:nonzero;"/></g></g></svg>